<mxfile host="65bd71144e" modified="2021-02-15T15:53:08.700Z" agent="5.0 (X11; Linux x86_64) AppleWebKit/537.36 (KHTML, like Gecko) Code/1.53.0 Chrome/87.0.4280.141 Electron/11.2.1 Safari/537.36" etag="FA6Y-cAzby-FnvQKymmk" version="14.2.4" type="embed">
    <diagram id="kuqkHUzQ6pWqC92oyJI4" name="Page-1">
        <mxGraphModel dx="1177" dy="355" grid="1" gridSize="10" guides="1" tooltips="1" connect="1" arrows="1" fold="0" page="0" pageScale="1" pageWidth="827" pageHeight="1169" math="0" shadow="0">
            <root>
                <mxCell id="0"/>
                <mxCell id="1" parent="0"/>
                <mxCell id="17" value="COMMUNITY SAFETY PWA" style="swimlane;html=1;childLayout=stackLayout;resizeParent=1;resizeParentMax=0;horizontal=1;startSize=20;horizontalStack=0;labelBackgroundColor=none;fontSize=12;fontColor=#f0f0f0;align=left;" parent="1" vertex="1">
                    <mxGeometry x="20" y="20" width="1590" height="530" as="geometry">
                        <mxRectangle x="20" y="20" width="60" height="20" as="alternateBounds"/>
                    </mxGeometry>
                </mxCell>
                <mxCell id="18" value="REGISTER" style="swimlane;html=1;startSize=20;horizontal=0;" parent="17" vertex="1">
                    <mxGeometry y="20" width="1590" height="120" as="geometry">
                        <mxRectangle y="20" width="790" height="20" as="alternateBounds"/>
                    </mxGeometry>
                </mxCell>
                <mxCell id="23" style="edgeStyle=orthogonalEdgeStyle;rounded=0;orthogonalLoop=1;jettySize=auto;html=1;entryX=0;entryY=0.5;entryDx=0;entryDy=0;fontSize=12;fontColor=#f0f0f0;" parent="18" source="21" target="22" edge="1">
                    <mxGeometry relative="1" as="geometry"/>
                </mxCell>
                <mxCell id="21" value="Start" style="rounded=1;whiteSpace=wrap;html=1;labelBackgroundColor=none;fontSize=12;fontColor=#f0f0f0;align=center;" parent="18" vertex="1">
                    <mxGeometry x="40" y="30" width="120" height="60" as="geometry"/>
                </mxCell>
                <mxCell id="25" style="edgeStyle=orthogonalEdgeStyle;rounded=0;orthogonalLoop=1;jettySize=auto;html=1;entryX=0;entryY=0.5;entryDx=0;entryDy=0;fontSize=12;fontColor=#f0f0f0;" parent="18" source="22" target="24" edge="1">
                    <mxGeometry relative="1" as="geometry"/>
                </mxCell>
                <mxCell id="22" value="Enter the data" style="rounded=0;whiteSpace=wrap;html=1;labelBackgroundColor=none;fontSize=12;fontColor=#f0f0f0;align=center;" parent="18" vertex="1">
                    <mxGeometry x="210" y="30" width="120" height="60" as="geometry"/>
                </mxCell>
                <mxCell id="32" style="edgeStyle=orthogonalEdgeStyle;rounded=0;orthogonalLoop=1;jettySize=auto;html=1;entryX=0;entryY=0.5;entryDx=0;entryDy=0;fontSize=12;fontColor=#f0f0f0;" parent="18" source="24" target="26" edge="1">
                    <mxGeometry relative="1" as="geometry"/>
                </mxCell>
                <mxCell id="24" value="Validate de data" style="rounded=0;whiteSpace=wrap;html=1;labelBackgroundColor=none;fontSize=12;fontColor=#f0f0f0;align=center;" parent="18" vertex="1">
                    <mxGeometry x="370" y="30" width="120" height="60" as="geometry"/>
                </mxCell>
                <mxCell id="33" style="edgeStyle=orthogonalEdgeStyle;rounded=0;orthogonalLoop=1;jettySize=auto;html=1;entryX=0;entryY=0.5;entryDx=0;entryDy=0;fontSize=12;fontColor=#f0f0f0;" parent="18" source="26" target="27" edge="1">
                    <mxGeometry relative="1" as="geometry"/>
                </mxCell>
                <mxCell id="26" value="Register in database" style="rounded=0;whiteSpace=wrap;html=1;labelBackgroundColor=none;fontSize=12;fontColor=#f0f0f0;align=center;" parent="18" vertex="1">
                    <mxGeometry x="530" y="30" width="120" height="60" as="geometry"/>
                </mxCell>
                <mxCell id="34" style="edgeStyle=orthogonalEdgeStyle;rounded=0;orthogonalLoop=1;jettySize=auto;html=1;entryX=0;entryY=0.5;entryDx=0;entryDy=0;fontSize=12;fontColor=#f0f0f0;" parent="18" source="27" target="28" edge="1">
                    <mxGeometry relative="1" as="geometry"/>
                </mxCell>
                <mxCell id="27" value="Generate link to for account activation" style="rounded=0;whiteSpace=wrap;html=1;labelBackgroundColor=none;fontSize=12;fontColor=#f0f0f0;align=center;" parent="18" vertex="1">
                    <mxGeometry x="690" y="30" width="120" height="60" as="geometry"/>
                </mxCell>
                <mxCell id="35" style="edgeStyle=orthogonalEdgeStyle;rounded=0;orthogonalLoop=1;jettySize=auto;html=1;entryX=0;entryY=0.5;entryDx=0;entryDy=0;fontSize=12;fontColor=#f0f0f0;" parent="18" source="28" target="29" edge="1">
                    <mxGeometry relative="1" as="geometry"/>
                </mxCell>
                <mxCell id="28" value="Email link to user" style="rounded=0;whiteSpace=wrap;html=1;labelBackgroundColor=none;fontSize=12;fontColor=#f0f0f0;align=center;" parent="18" vertex="1">
                    <mxGeometry x="860" y="30" width="120" height="60" as="geometry"/>
                </mxCell>
                <mxCell id="36" style="edgeStyle=orthogonalEdgeStyle;rounded=0;orthogonalLoop=1;jettySize=auto;html=1;entryX=0;entryY=0.5;entryDx=0;entryDy=0;fontSize=12;fontColor=#f0f0f0;" parent="18" source="29" target="30" edge="1">
                    <mxGeometry relative="1" as="geometry"/>
                </mxCell>
                <mxCell id="29" value="User click on the link" style="rounded=0;whiteSpace=wrap;html=1;labelBackgroundColor=none;fontSize=12;fontColor=#f0f0f0;align=center;" parent="18" vertex="1">
                    <mxGeometry x="1030" y="30" width="120" height="60" as="geometry"/>
                </mxCell>
                <mxCell id="37" style="edgeStyle=orthogonalEdgeStyle;rounded=0;orthogonalLoop=1;jettySize=auto;html=1;entryX=0;entryY=0.5;entryDx=0;entryDy=0;fontSize=12;fontColor=#f0f0f0;" parent="18" source="30" target="31" edge="1">
                    <mxGeometry relative="1" as="geometry"/>
                </mxCell>
                <mxCell id="30" value="Active account" style="rounded=0;whiteSpace=wrap;html=1;labelBackgroundColor=none;fontSize=12;fontColor=#f0f0f0;align=center;" parent="18" vertex="1">
                    <mxGeometry x="1190" y="30" width="120" height="60" as="geometry"/>
                </mxCell>
                <mxCell id="31" value="Redirect the user to the login page" style="rounded=0;whiteSpace=wrap;html=1;labelBackgroundColor=none;fontSize=12;fontColor=#f0f0f0;align=center;" parent="18" vertex="1">
                    <mxGeometry x="1350" y="30" width="120" height="60" as="geometry"/>
                </mxCell>
                <mxCell id="19" value="LOGIN" style="swimlane;html=1;startSize=20;horizontal=0;" parent="17" vertex="1">
                    <mxGeometry y="140" width="1590" height="230" as="geometry"/>
                </mxCell>
                <mxCell id="42" style="edgeStyle=orthogonalEdgeStyle;rounded=0;orthogonalLoop=1;jettySize=auto;html=1;entryX=0;entryY=0.5;entryDx=0;entryDy=0;fontSize=12;fontColor=#f0f0f0;" parent="19" source="38" target="41" edge="1">
                    <mxGeometry relative="1" as="geometry"/>
                </mxCell>
                <mxCell id="38" value="Start" style="rounded=1;whiteSpace=wrap;html=1;labelBackgroundColor=none;fontSize=12;fontColor=#f0f0f0;align=center;" parent="19" vertex="1">
                    <mxGeometry x="40" y="30" width="120" height="60" as="geometry"/>
                </mxCell>
                <mxCell id="44" style="edgeStyle=orthogonalEdgeStyle;rounded=0;orthogonalLoop=1;jettySize=auto;html=1;entryX=0;entryY=0.5;entryDx=0;entryDy=0;fontSize=12;fontColor=#f0f0f0;" parent="19" source="41" target="43" edge="1">
                    <mxGeometry relative="1" as="geometry"/>
                </mxCell>
                <mxCell id="41" value="Send UserName and Password" style="rounded=0;whiteSpace=wrap;html=1;labelBackgroundColor=none;fontSize=12;fontColor=#f0f0f0;align=center;" parent="19" vertex="1">
                    <mxGeometry x="212" y="30" width="120" height="60" as="geometry"/>
                </mxCell>
                <mxCell id="46" style="edgeStyle=orthogonalEdgeStyle;rounded=0;orthogonalLoop=1;jettySize=auto;html=1;exitX=1;exitY=0.5;exitDx=0;exitDy=0;entryX=0;entryY=0.5;entryDx=0;entryDy=0;" parent="19" source="43" target="45" edge="1">
                    <mxGeometry relative="1" as="geometry"/>
                </mxCell>
                <mxCell id="43" value="Request to&amp;nbsp;&lt;br&gt;&lt;span style=&quot;color: rgb(230 , 219 , 116) ; background-color: rgb(39 , 40 , 34) ; font-family: &amp;#34;droid sans mono&amp;#34; , monospace , monospace , &amp;#34;droid sans fallback&amp;#34; ; font-size: 14px&quot;&gt;/pgapi/v2/login&lt;/span&gt;" style="rounded=0;whiteSpace=wrap;html=1;labelBackgroundColor=none;fontSize=12;fontColor=#f0f0f0;align=center;" parent="19" vertex="1">
                    <mxGeometry x="380" y="30" width="140" height="60" as="geometry"/>
                </mxCell>
                <mxCell id="49" style="edgeStyle=orthogonalEdgeStyle;rounded=0;orthogonalLoop=1;jettySize=auto;html=1;entryX=0;entryY=0.5;entryDx=0;entryDy=0;" parent="19" source="45" target="48" edge="1">
                    <mxGeometry relative="1" as="geometry"/>
                </mxCell>
                <mxCell id="45" value="&lt;pre class=&quot;tw-data-text tw-text-large XcVN5d tw-ta&quot; id=&quot;tw-target-text&quot; style=&quot;text-align: left&quot; dir=&quot;ltr&quot;&gt;&lt;span lang=&quot;en&quot;&gt;Validate &lt;br/&gt;username &lt;br/&gt;and password&lt;/span&gt;&lt;/pre&gt;" style="rounded=0;whiteSpace=wrap;html=1;labelBackgroundColor=none;fontSize=12;fontColor=#f0f0f0;align=center;" parent="19" vertex="1">
                    <mxGeometry x="560" y="30" width="124" height="60" as="geometry"/>
                </mxCell>
                <mxCell id="58" style="edgeStyle=orthogonalEdgeStyle;rounded=0;orthogonalLoop=1;jettySize=auto;html=1;entryX=0;entryY=0.5;entryDx=0;entryDy=0;" parent="19" source="47" target="57" edge="1">
                    <mxGeometry relative="1" as="geometry"/>
                </mxCell>
                <mxCell id="47" value="User not alowed" style="rounded=0;whiteSpace=wrap;html=1;labelBackgroundColor=none;fontSize=12;fontColor=#f0f0f0;align=center;" parent="19" vertex="1">
                    <mxGeometry x="850" y="30" width="120" height="60" as="geometry"/>
                </mxCell>
                <mxCell id="50" style="edgeStyle=orthogonalEdgeStyle;rounded=0;orthogonalLoop=1;jettySize=auto;html=1;exitX=1;exitY=0.5;exitDx=0;exitDy=0;entryX=0;entryY=0.5;entryDx=0;entryDy=0;" parent="19" source="48" target="47" edge="1">
                    <mxGeometry relative="1" as="geometry"/>
                </mxCell>
                <mxCell id="48" value="User is&lt;br&gt;valid?" style="rhombus;whiteSpace=wrap;html=1;rounded=0;" parent="19" vertex="1">
                    <mxGeometry x="733" y="20" width="80" height="80" as="geometry"/>
                </mxCell>
                <mxCell id="52" value="NO" style="text;html=1;strokeColor=none;fillColor=none;align=center;verticalAlign=middle;whiteSpace=wrap;rounded=0;" parent="19" vertex="1">
                    <mxGeometry x="800" y="30" width="40" height="20" as="geometry"/>
                </mxCell>
                <mxCell id="51" value="YES" style="text;html=1;strokeColor=none;fillColor=none;align=center;verticalAlign=middle;whiteSpace=wrap;rounded=0;" parent="19" vertex="1">
                    <mxGeometry x="720" y="90" width="40" height="20" as="geometry"/>
                </mxCell>
                <mxCell id="60" style="edgeStyle=orthogonalEdgeStyle;rounded=0;orthogonalLoop=1;jettySize=auto;html=1;entryX=0;entryY=0.5;entryDx=0;entryDy=0;" parent="19" source="53" target="59" edge="1">
                    <mxGeometry relative="1" as="geometry"/>
                </mxCell>
                <mxCell id="53" value="Return Ok and Token" style="rounded=0;whiteSpace=wrap;html=1;labelBackgroundColor=none;fontSize=12;fontColor=#f0f0f0;align=center;" parent="19" vertex="1">
                    <mxGeometry x="713" y="140" width="120" height="60" as="geometry"/>
                </mxCell>
                <mxCell id="54" style="edgeStyle=orthogonalEdgeStyle;rounded=0;orthogonalLoop=1;jettySize=auto;html=1;entryX=0.5;entryY=0;entryDx=0;entryDy=0;" parent="19" source="48" target="53" edge="1">
                    <mxGeometry relative="1" as="geometry"/>
                </mxCell>
                <mxCell id="65" style="edgeStyle=orthogonalEdgeStyle;rounded=0;orthogonalLoop=1;jettySize=auto;html=1;entryX=0;entryY=0;entryDx=0;entryDy=0;" parent="19" source="57" target="61" edge="1">
                    <mxGeometry relative="1" as="geometry"/>
                </mxCell>
                <mxCell id="57" value="Return to login&lt;br&gt;page" style="rounded=0;whiteSpace=wrap;html=1;labelBackgroundColor=none;fontSize=12;fontColor=#f0f0f0;align=center;" parent="19" vertex="1">
                    <mxGeometry x="1010" y="30" width="120" height="60" as="geometry"/>
                </mxCell>
                <mxCell id="63" style="edgeStyle=orthogonalEdgeStyle;rounded=0;orthogonalLoop=1;jettySize=auto;html=1;entryX=0;entryY=1;entryDx=0;entryDy=0;" parent="19" source="59" target="61" edge="1">
                    <mxGeometry relative="1" as="geometry"/>
                </mxCell>
                <mxCell id="59" value="Redirect to /home page" style="rounded=0;whiteSpace=wrap;html=1;labelBackgroundColor=none;fontSize=12;fontColor=#f0f0f0;align=center;" parent="19" vertex="1">
                    <mxGeometry x="1010" y="140" width="120" height="60" as="geometry"/>
                </mxCell>
                <mxCell id="61" value="END" style="ellipse;whiteSpace=wrap;html=1;aspect=fixed;rounded=0;" parent="19" vertex="1">
                    <mxGeometry x="1250" y="75" width="80" height="80" as="geometry"/>
                </mxCell>
                <mxCell id="20" value="REGISTER USER" style="swimlane;html=1;startSize=20;horizontal=0;" parent="17" vertex="1">
                    <mxGeometry y="370" width="1590" height="160" as="geometry"/>
                </mxCell>
            </root>
        </mxGraphModel>
    </diagram>
</mxfile>